IDResults
version=1
nRows=19
nColumns=18
inDegrees=yes
endheader
time	ground_thorax_rot_x	ground_thorax_rot_y	ground_thorax_rot_z	ground_thorax_tx	ground_thorax_ty	ground_thorax_tz	clav_prot	clav_elev	scapula_abduction	scapula_elevation	scapula_upward_rot	scapula_winging	plane_elv	shoulder_elv	axial_rot	elbow_flexion	pro_sup
      0.00000000	      9.52992779	     -8.55672608	    -22.35240652	     -0.02958699	     -0.02351777	      0.03790351	    -25.66375029	     -5.22717241	    -19.48227995	     -8.70201759	     29.46780257	     12.24758080	     11.00000000	     12.49789619	    -26.30359160	      0.64429919	      5.15400000
      0.02000000	      9.52992779	     -8.48289616	    -22.41319324	     -0.02953613	     -0.02363042	      0.03784225	    -25.68994038	     -5.26193817	    -19.54591884	     -8.72104650	     29.43460190	     12.26800630	     11.00000000	     12.50744718	    -26.26040303	      0.61573102	      5.15400000
      0.04000000	      9.52992779	     -8.41904353	    -22.47375896	     -0.02950654	     -0.02375008	      0.03778610	    -25.71152974	     -5.29316723	    -19.60401266	     -8.73698281	     29.39950836	     12.28757858	     11.00000000	     12.52944395	    -26.37388844	      0.59308103	      5.15400000
      0.06000000	      9.52992779	     -8.33155197	    -22.58951460	     -0.02930816	     -0.02408640	      0.03768652	    -25.78791081	     -5.25422948	    -19.68339081	     -8.73143701	     29.48573705	     12.25417095	     11.00000000	     12.32071448	    -24.58011690	      0.90352809	      5.15400000
      0.08000000	      9.52992779	     -8.28589571	    -22.61232711	     -0.02942631	     -0.02402636	      0.03766840	    -25.75702461	     -5.34581604	    -19.70608603	     -8.76725583	     29.35487154	     12.31711524	     11.00000000	     12.55345076	    -26.67163789	      0.55630700	      5.15400000
      0.10000000	      9.52992779	     -8.15135207	    -22.64284803	     -0.02939934	     -0.02405480	      0.03756426	    -25.80991842	     -5.40838635	    -19.86107517	     -8.79477501	     29.25961535	     12.36253155	     11.00000000	     12.58494398	    -26.39151855	      0.52737081	      5.15400000
      0.12000000	      9.52992779	     -8.15219237	    -22.73818925	     -0.02933962	     -0.02427113	      0.03753737	    -25.78297955	     -5.39643265	    -19.79809173	     -8.78921456	     29.28111347	     12.35292880	     11.00000000	     12.60609852	    -26.90543577	      0.52334493	      5.15400000
      0.14000000	      9.52992779	     -8.07535951	    -22.80427985	     -0.02929793	     -0.02439888	      0.03744555	    -25.79824038	     -5.41446199	    -19.84078370	     -8.79767257	     29.25606255	     12.36534394	     11.00000000	     12.62410792	    -27.02993139	      0.51206048	      5.15400000
      0.16000000	      9.52992779	     -8.01840262	    -22.86103628	     -0.02922455	     -0.02450544	      0.03737426	    -25.79368219	     -5.43041230	    -19.86346577	     -8.79981420	     29.21278682	     12.38123942	     11.00000000	     12.66216524	    -27.10561386	      0.49943998	      5.15400000
      0.18000000	      9.52992779	     -7.93949799	    -22.92927386	     -0.02919727	     -0.02463782	      0.03726195	    -25.81171995	     -5.43588462	    -19.88607292	     -8.80659346	     29.22255320	     12.38105687	     11.00000000	     12.65260505	    -27.21408554	      0.48767228	      5.15400000
      0.20000000	      9.52992779	     -7.86708993	    -22.98644740	     -0.02914261	     -0.02473922	      0.03715435	    -25.81922413	     -5.44230755	    -19.91048490	     -8.80841197	     29.20714851	     12.38703485	     11.00000000	     12.66360508	    -27.31694337	      0.47883496	      5.15400000
      0.22000000	      9.52992779	     -7.78863863	    -23.04377583	     -0.02912036	     -0.02485217	      0.03701076	    -25.82053033	     -5.43445026	    -19.91525410	     -8.80301125	     29.20730690	     12.38349831	     11.00000000	     12.66591320	    -27.40161513	      0.47143263	      5.15400000
      0.24000000	      9.52992779	     -7.75208622	    -23.07363467	     -0.02903055	     -0.02492130	      0.03695594	    -25.81346021	     -5.42186427	    -19.91006373	     -8.79318378	     29.20368101	     12.38044492	     11.00000000	     12.65956924	    -27.40848859	      0.45819193	      5.15400000
      0.26000000	      9.52992779	     -7.65520936	    -23.20861156	     -0.02899507	     -0.02529690	      0.03681277	    -25.85160927	     -5.33280466	    -19.98776287	     -8.73883176	     29.23048862	     12.34238366	     11.00000000	     12.60079589	    -28.18517954	      0.83211874	      5.15400000
      0.28000000	      9.52992779	     -7.46939357	    -23.15053902	     -0.02897661	     -0.02497571	      0.03652372	    -25.87974695	     -5.43617116	    -20.07324495	     -8.79563516	     29.14715578	     12.39927531	     11.00000000	     12.63748446	    -26.91229026	      0.42946507	      5.15400000
      0.30000000	      9.52992779	     -7.49418942	    -23.29397748	     -0.02893068	     -0.02542175	      0.03649266	    -25.85650225	     -5.29221801	    -20.00538906	     -8.71224354	     29.23701712	     12.32644706	     11.00000000	     12.57754527	    -28.23183229	      0.79589209	      5.15400000
      0.32000000	      9.52992779	     -7.39849531	    -23.26081003	     -0.02893817	     -0.02525501	      0.03628738	    -25.84114402	     -5.30589858	    -19.96482169	     -8.72269765	     29.24629309	     12.32905472	     11.00000000	     12.58012017	    -27.65603190	      0.42637484	      5.15400000
      0.34000000	      9.52992779	     -7.35262918	    -23.31858073	     -0.02890422	     -0.02537904	      0.03616845	    -25.82971543	     -5.23872437	    -19.92757852	     -8.68480824	     29.29353222	     12.29398316	     11.00000000	     12.53996928	    -28.03100109	      0.42381877	      5.15400000
      0.36000000	      9.52992779	     -7.25538630	    -23.36460903	     -0.02887109	     -0.02542584	      0.03603238	    -25.85347071	     -5.20461783	    -19.97439668	     -8.66443277	     29.30333440	     12.27964683	     11.00000000	     12.49812135	    -28.06591650	      0.41209666	      5.15400000
